<svg width="670" height="197" viewBox="0 0 670 197" fill="none" xmlns="http://www.w3.org/2000/svg">
<path d="M0 177.968H314.594V197H0V177.968Z" fill="#FCFCFC"/>
<path d="M0 177.968H314.594V197H0V177.968Z" fill="#7068DC"/>
<path fill-rule="evenodd" clip-rule="evenodd" d="M25.5214 72.6451V144.662H63.1547V72.6451H86.5133V42.2891H63.1547V0H25.5214V42.2891H2.16283V72.6451H25.5214Z" fill="#FCFCFC"/>
<path fill-rule="evenodd" clip-rule="evenodd" d="M156.663 146.965C145.273 146.965 135.107 144.662 126.168 140.056C117.372 135.311 110.379 128.891 105.188 120.796C99.9972 112.561 97.4018 103.35 97.4018 93.1615C97.4018 82.9731 99.9251 73.9012 104.972 65.9458C110.163 57.8509 117.228 51.5005 126.168 46.8948C135.107 42.1495 145.2 39.7768 156.447 39.7768C167.694 39.7768 177.715 42.1495 186.511 46.8948C195.45 51.5005 202.516 57.8509 207.706 65.9458C212.897 73.9012 215.493 82.9731 215.493 93.1615C215.493 103.35 212.897 112.561 207.706 120.796C202.66 128.891 195.667 135.311 186.727 140.056C177.931 144.662 167.91 146.965 156.663 146.965ZM167.261 112.003C164.233 113.678 160.629 114.515 156.447 114.515C152.41 114.515 148.805 113.678 145.633 112.003C142.461 110.189 140.01 107.677 138.279 104.467C136.549 101.256 135.684 97.6277 135.684 93.5802C135.684 89.3932 136.549 85.7644 138.279 82.6939C140.01 79.4839 142.461 76.9717 145.633 75.1573C148.805 73.3429 152.41 72.4357 156.447 72.4357C160.629 72.4357 164.233 73.3429 167.261 75.1573C170.289 76.8321 172.668 79.2745 174.399 82.4846C176.273 85.5551 177.21 89.1839 177.21 93.3709C177.21 97.5579 176.345 101.256 174.615 104.467C172.885 107.677 170.433 110.189 167.261 112.003Z" fill="#FCFCFC"/>
<path fill-rule="evenodd" clip-rule="evenodd" d="M380.855 146.965C369.464 146.965 359.298 144.662 350.359 140.056C341.563 135.311 334.57 128.891 329.379 120.796C324.188 112.561 321.593 103.35 321.593 93.1615C321.593 82.9731 324.116 73.9012 329.163 65.9458C334.354 57.8509 341.419 51.5005 350.359 46.8948C359.298 42.1495 369.392 39.7768 380.638 39.7768C391.885 39.7768 401.906 42.1495 410.702 46.8948C419.641 51.5005 426.707 57.8509 431.897 65.9458C437.088 73.9012 439.684 82.9731 439.684 93.1615C439.684 103.35 437.088 112.561 431.897 120.796C426.851 128.891 419.858 135.311 410.918 140.056C402.122 144.662 392.101 146.965 380.855 146.965ZM391.452 112.003C388.424 113.678 384.82 114.515 380.638 114.515C376.601 114.515 372.996 113.678 369.824 112.003C366.652 110.189 364.201 107.677 362.471 104.467C360.74 101.256 359.875 97.6277 359.875 93.5802C359.875 89.3932 360.74 85.7644 362.471 82.6939C364.201 79.4839 366.652 76.9717 369.824 75.1573C372.996 73.3429 376.601 72.4357 380.638 72.4357C384.82 72.4357 388.424 73.3429 391.452 75.1573C394.48 76.8321 396.86 79.2745 398.59 82.4846C400.464 85.5551 401.401 89.1839 401.401 93.3709C401.401 97.5579 400.536 101.256 398.806 104.467C397.076 107.677 394.625 110.189 391.452 112.003Z" fill="#FCFCFC"/>
<path fill-rule="evenodd" clip-rule="evenodd" d="M611.171 146.965C599.78 146.965 589.615 144.662 580.675 140.056C571.879 135.311 564.886 128.891 559.695 120.796C554.505 112.561 551.909 103.35 551.909 93.1615C551.909 82.9731 554.433 73.9012 559.479 65.9458C564.67 57.8509 571.735 51.5005 580.675 46.8948C589.615 42.1495 599.708 39.7768 610.955 39.7768C622.201 39.7768 632.223 42.1495 641.018 46.8948C649.958 51.5005 657.023 57.8509 662.214 65.9458C667.405 73.9012 670 82.9731 670 93.1615C670 103.35 667.405 112.561 662.214 120.796C657.167 128.891 650.174 135.311 641.234 140.056C632.439 144.662 622.418 146.965 611.171 146.965ZM621.769 112.003C618.741 113.678 615.136 114.515 610.955 114.515C606.917 114.515 603.313 113.678 600.141 112.003C596.968 110.189 594.517 107.677 592.787 104.467C591.057 101.256 590.191 97.6277 590.191 93.5802C590.191 89.3932 591.057 85.7644 592.787 82.6939C594.517 79.4839 596.968 76.9717 600.141 75.1573C603.313 73.3429 606.917 72.4357 610.955 72.4357C615.136 72.4357 618.741 73.3429 621.769 75.1573C624.797 76.8321 627.176 79.2745 628.906 82.4846C630.781 85.5551 631.718 89.1839 631.718 93.3709C631.718 97.5579 630.853 101.256 629.122 104.467C627.392 107.677 624.941 110.189 621.769 112.003Z" fill="#FCFCFC"/>
<path d="M249.713 0H287.346V42.2891H310.704V72.6451H287.346V144.662H249.713V72.6451H226.354V42.2891H249.713V0Z" fill="#FCFCFC"/>
<path d="M461.102 144.662V42.2891H498.736V48.8067C505.628 43.0659 514.568 40.1955 525.555 40.1955C530.601 40.1955 534.927 40.8236 538.532 42.0797C542.281 43.3358 545.453 45.2898 548.048 47.9416L526.204 76.204C525.05 74.9479 523.392 73.971 521.229 73.2731C519.211 72.4357 516.904 72.017 514.308 72.017C509.406 72.017 505.585 73.4825 502.845 76.4134C500.106 79.2047 498.736 83.3918 498.736 88.9745V144.662H461.102Z" fill="#FCFCFC"/>
</svg>
